<svg width="300" height="183" viewBox="0 0 300 183" fill="none" xmlns="http://www.w3.org/2000/svg">
<rect width="300" height="183" fill="#D9D9D9"/>
<path d="M61.07 74V34.95H69.43V71.745L64.81 66.96H87.415V74H61.07ZM104.771 74.66C101.765 74.66 99.143 74.0367 96.9064 72.79C94.6697 71.5067 92.928 69.71 91.6814 67.4C90.4347 65.09 89.8114 62.3767 89.8114 59.26C89.8114 56.1433 90.4347 53.4483 91.6814 51.175C92.928 48.865 94.6697 47.0683 96.9064 45.785C99.143 44.5017 101.765 43.86 104.771 43.86C107.778 43.86 110.4 44.5017 112.636 45.785C114.873 47.0683 116.615 48.865 117.861 51.175C119.108 53.4483 119.731 56.1433 119.731 59.26C119.731 62.3767 119.108 65.09 117.861 67.4C116.615 69.71 114.873 71.5067 112.636 72.79C110.4 74.0367 107.778 74.66 104.771 74.66ZM104.771 68.335C106.825 68.335 108.42 67.5467 109.556 65.97C110.693 64.3567 111.261 62.12 111.261 59.26C111.261 56.4 110.693 54.1817 109.556 52.605C108.42 50.9917 106.825 50.185 104.771 50.185C102.718 50.185 101.123 50.9917 99.9864 52.605C98.8497 54.1817 98.2814 56.4 98.2814 59.26C98.2814 62.12 98.8497 64.3567 99.9864 65.97C101.123 67.5467 102.718 68.335 104.771 68.335ZM138.068 82.91C135.245 82.91 132.88 82.5617 130.973 81.865C129.103 81.1683 127.6 80.1967 126.463 78.95C125.363 77.7033 124.593 76.2733 124.153 74.66L132.623 74.055C132.917 75.0083 133.467 75.76 134.273 76.31C135.117 76.86 136.382 77.135 138.068 77.135C140.048 77.135 141.552 76.6583 142.578 75.705C143.642 74.7883 144.173 73.3033 144.173 71.25V68.115C143.477 69.4717 142.358 70.5717 140.818 71.415C139.278 72.2217 137.555 72.625 135.648 72.625C133.228 72.625 131.083 72.0383 129.213 70.865C127.343 69.655 125.877 67.9867 124.813 65.86C123.787 63.6967 123.273 61.1667 123.273 58.27C123.273 55.4467 123.787 52.9533 124.813 50.79C125.877 48.6267 127.325 46.94 129.158 45.73C131.028 44.4833 133.155 43.86 135.538 43.86C137.702 43.86 139.517 44.3367 140.983 45.29C142.487 46.2433 143.623 47.5083 144.393 49.085V44.52H152.478V71.085C152.478 73.725 151.873 75.9067 150.663 77.63C149.453 79.39 147.767 80.71 145.603 81.59C143.44 82.47 140.928 82.91 138.068 82.91ZM138.013 66.52C139.92 66.52 141.423 65.7867 142.523 64.32C143.66 62.8533 144.228 60.8183 144.228 58.215C144.228 56.4917 143.972 55.0067 143.458 53.76C142.982 52.5133 142.267 51.56 141.313 50.9C140.397 50.24 139.297 49.91 138.013 49.91C136.033 49.91 134.493 50.6617 133.393 52.165C132.293 53.6683 131.743 55.685 131.743 58.215C131.743 60.7817 132.312 62.8167 133.448 64.32C134.585 65.7867 136.107 66.52 138.013 66.52ZM172.555 74.66C169.548 74.66 166.926 74.0367 164.69 72.79C162.453 71.5067 160.711 69.71 159.465 67.4C158.218 65.09 157.595 62.3767 157.595 59.26C157.595 56.1433 158.218 53.4483 159.465 51.175C160.711 48.865 162.453 47.0683 164.69 45.785C166.926 44.5017 169.548 43.86 172.555 43.86C175.561 43.86 178.183 44.5017 180.42 45.785C182.656 47.0683 184.398 48.865 185.645 51.175C186.891 53.4483 187.515 56.1433 187.515 59.26C187.515 62.3767 186.891 65.09 185.645 67.4C184.398 69.71 182.656 71.5067 180.42 72.79C178.183 74.0367 175.561 74.66 172.555 74.66ZM172.555 68.335C174.608 68.335 176.203 67.5467 177.34 65.97C178.476 64.3567 179.045 62.12 179.045 59.26C179.045 56.4 178.476 54.1817 177.34 52.605C176.203 50.9917 174.608 50.185 172.555 50.185C170.501 50.185 168.906 50.9917 167.77 52.605C166.633 54.1817 166.065 56.4 166.065 59.26C166.065 62.12 166.633 64.3567 167.77 65.97C168.906 67.5467 170.501 68.335 172.555 68.335ZM77.625 146.88C74.0683 146.88 70.8967 146.073 68.11 144.46C65.36 142.847 63.1967 140.518 61.62 137.475C60.08 134.432 59.31 130.783 59.31 126.53C59.31 122.387 60.0617 118.793 61.565 115.75C63.0683 112.67 65.2133 110.287 68 108.6C70.7867 106.913 74.05 106.07 77.79 106.07C82.8867 106.07 86.8467 107.335 89.67 109.865C92.53 112.358 94.3633 115.933 95.17 120.59L86.48 120.92C86.04 118.463 85.0867 116.557 83.62 115.2C82.1533 113.807 80.21 113.11 77.79 113.11C75.7 113.11 73.9217 113.66 72.455 114.76C70.9883 115.86 69.87 117.418 69.1 119.435C68.33 121.452 67.945 123.817 67.945 126.53C67.945 129.28 68.33 131.663 69.1 133.68C69.9067 135.66 71.0433 137.182 72.51 138.245C73.9767 139.308 75.7183 139.84 77.735 139.84C80.375 139.84 82.41 139.107 83.84 137.64C85.3067 136.137 86.2233 134.065 86.59 131.425L95.335 131.755C94.8217 134.945 93.8133 137.658 92.31 139.895C90.8067 142.132 88.8267 143.855 86.37 145.065C83.95 146.275 81.035 146.88 77.625 146.88ZM108.076 146C105.656 146 103.768 145.395 102.411 144.185C101.054 142.975 100.376 141.013 100.376 138.3V106.95H108.626V137.42C108.626 138.3 108.828 138.923 109.231 139.29C109.634 139.657 110.221 139.84 110.991 139.84H112.971V146H108.076ZM117.188 146V116.52H125.438V146H117.188ZM117.023 112.89V106.29H125.548V112.89H117.023ZM133.032 146V116.52H140.457L140.787 125.155L139.742 124.88C140.036 122.68 140.622 120.92 141.502 119.6C142.419 118.28 143.556 117.327 144.912 116.74C146.269 116.153 147.754 115.86 149.367 115.86C151.494 115.86 153.291 116.318 154.757 117.235C156.261 118.152 157.397 119.453 158.167 121.14C158.974 122.79 159.377 124.752 159.377 127.025V146H151.127V129.775C151.127 128.198 150.999 126.86 150.742 125.76C150.486 124.66 150.027 123.835 149.367 123.285C148.707 122.698 147.791 122.405 146.617 122.405C144.894 122.405 143.574 123.047 142.657 124.33C141.741 125.577 141.282 127.392 141.282 129.775V146H133.032ZM166.172 146V116.52H174.422V146H166.172ZM166.007 112.89V106.29H174.532V112.89H166.007ZM194.469 146.66C191.462 146.66 188.84 146.037 186.604 144.79C184.367 143.507 182.625 141.71 181.379 139.4C180.132 137.09 179.509 134.377 179.509 131.26C179.509 128.143 180.132 125.448 181.379 123.175C182.625 120.865 184.367 119.068 186.604 117.785C188.84 116.502 191.462 115.86 194.469 115.86C197.072 115.86 199.4 116.318 201.454 117.235C203.544 118.152 205.23 119.472 206.514 121.195C207.797 122.918 208.585 124.99 208.879 127.41L200.354 127.795C200.097 125.962 199.437 124.587 198.374 123.67C197.347 122.717 196.045 122.24 194.469 122.24C192.415 122.24 190.82 123.028 189.684 124.605C188.547 126.182 187.979 128.4 187.979 131.26C187.979 134.12 188.547 136.357 189.684 137.97C190.82 139.547 192.415 140.335 194.469 140.335C196.045 140.335 197.365 139.858 198.429 138.905C199.492 137.915 200.134 136.43 200.354 134.45L208.879 134.78C208.622 137.2 207.852 139.308 206.569 141.105C205.322 142.865 203.654 144.24 201.564 145.23C199.51 146.183 197.145 146.66 194.469 146.66ZM222.451 146.66C219.408 146.66 216.915 145.963 214.971 144.57C213.065 143.14 212.111 141.16 212.111 138.63C212.111 136.027 212.918 134.028 214.531 132.635C216.181 131.205 218.601 130.16 221.791 129.5L231.306 127.63C231.306 125.723 230.866 124.293 229.986 123.34C229.143 122.35 227.915 121.855 226.301 121.855C224.725 121.855 223.496 122.222 222.616 122.955C221.736 123.652 221.168 124.697 220.911 126.09L212.606 125.705C213.156 122.478 214.605 120.04 216.951 118.39C219.335 116.703 222.451 115.86 226.301 115.86C230.701 115.86 234.001 116.905 236.201 118.995C238.438 121.085 239.556 124.147 239.556 128.18V138.245C239.556 139.088 239.685 139.657 239.941 139.95C240.235 140.207 240.656 140.335 241.206 140.335H242.031V146C241.775 146.073 241.353 146.147 240.766 146.22C240.216 146.293 239.666 146.33 239.116 146.33C237.943 146.33 236.843 146.128 235.816 145.725C234.826 145.322 234.02 144.643 233.396 143.69C232.773 142.7 232.461 141.307 232.461 139.51L233.176 140.06C232.81 141.38 232.15 142.535 231.196 143.525C230.28 144.515 229.07 145.285 227.566 145.835C226.1 146.385 224.395 146.66 222.451 146.66ZM224.431 140.995C225.788 140.995 226.98 140.738 228.006 140.225C229.033 139.675 229.84 138.887 230.426 137.86C231.013 136.833 231.306 135.623 231.306 134.23V132.8L224.596 134.23C223.276 134.487 222.268 134.927 221.571 135.55C220.911 136.137 220.581 136.907 220.581 137.86C220.581 138.85 220.911 139.62 221.571 140.17C222.231 140.72 223.185 140.995 224.431 140.995Z" fill="#4844B6"/>
</svg>
