<svg width="184" height="113" viewBox="0 0 184 113" fill="none" xmlns="http://www.w3.org/2000/svg">
<path d="M2.07 40V0.949998H10.43V37.745L5.81 32.96H28.415V40H2.07ZM45.7714 40.66C42.7647 40.66 40.143 40.0367 37.9064 38.79C35.6697 37.5067 33.928 35.71 32.6814 33.4C31.4347 31.09 30.8114 28.3767 30.8114 25.26C30.8114 22.1433 31.4347 19.4483 32.6814 17.175C33.928 14.865 35.6697 13.0683 37.9064 11.785C40.143 10.5017 42.7647 9.86 45.7714 9.86C48.778 9.86 51.3997 10.5017 53.6364 11.785C55.873 13.0683 57.6147 14.865 58.8614 17.175C60.108 19.4483 60.7314 22.1433 60.7314 25.26C60.7314 28.3767 60.108 31.09 58.8614 33.4C57.6147 35.71 55.873 37.5067 53.6364 38.79C51.3997 40.0367 48.778 40.66 45.7714 40.66ZM45.7714 34.335C47.8247 34.335 49.4197 33.5467 50.5564 31.97C51.693 30.3567 52.2614 28.12 52.2614 25.26C52.2614 22.4 51.693 20.1817 50.5564 18.605C49.4197 16.9917 47.8247 16.185 45.7714 16.185C43.718 16.185 42.123 16.9917 40.9864 18.605C39.8497 20.1817 39.2814 22.4 39.2814 25.26C39.2814 28.12 39.8497 30.3567 40.9864 31.97C42.123 33.5467 43.718 34.335 45.7714 34.335ZM79.0683 48.91C76.2449 48.91 73.8799 48.5617 71.9733 47.865C70.1033 47.1683 68.5999 46.1967 67.4633 44.95C66.3633 43.7033 65.5933 42.2733 65.1533 40.66L73.6233 40.055C73.9166 41.0083 74.4666 41.76 75.2733 42.31C76.1166 42.86 77.3816 43.135 79.0683 43.135C81.0483 43.135 82.5516 42.6583 83.5783 41.705C84.6416 40.7883 85.1733 39.3033 85.1733 37.25V34.115C84.4766 35.4717 83.3583 36.5717 81.8183 37.415C80.2783 38.2217 78.5549 38.625 76.6483 38.625C74.2283 38.625 72.0833 38.0383 70.2133 36.865C68.3433 35.655 66.8766 33.9867 65.8133 31.86C64.7866 29.6967 64.2733 27.1667 64.2733 24.27C64.2733 21.4467 64.7866 18.9533 65.8133 16.79C66.8766 14.6267 68.3249 12.94 70.1583 11.73C72.0283 10.4833 74.1549 9.86 76.5383 9.86C78.7016 9.86 80.5166 10.3367 81.9833 11.29C83.4866 12.2433 84.6233 13.5083 85.3933 15.085V10.52H93.4783V37.085C93.4783 39.725 92.8733 41.9067 91.6633 43.63C90.4533 45.39 88.7666 46.71 86.6033 47.59C84.4399 48.47 81.9283 48.91 79.0683 48.91ZM79.0133 32.52C80.9199 32.52 82.4233 31.7867 83.5233 30.32C84.6599 28.8533 85.2283 26.8183 85.2283 24.215C85.2283 22.4917 84.9716 21.0067 84.4583 19.76C83.9816 18.5133 83.2666 17.56 82.3133 16.9C81.3966 16.24 80.2966 15.91 79.0133 15.91C77.0333 15.91 75.4933 16.6617 74.3933 18.165C73.2933 19.6683 72.7433 21.685 72.7433 24.215C72.7433 26.7817 73.3116 28.8167 74.4483 30.32C75.5849 31.7867 77.1066 32.52 79.0133 32.52ZM113.555 40.66C110.548 40.66 107.926 40.0367 105.69 38.79C103.453 37.5067 101.711 35.71 100.465 33.4C99.2179 31.09 98.5946 28.3767 98.5946 25.26C98.5946 22.1433 99.2179 19.4483 100.465 17.175C101.711 14.865 103.453 13.0683 105.69 11.785C107.926 10.5017 110.548 9.86 113.555 9.86C116.561 9.86 119.183 10.5017 121.42 11.785C123.656 13.0683 125.398 14.865 126.645 17.175C127.891 19.4483 128.515 22.1433 128.515 25.26C128.515 28.3767 127.891 31.09 126.645 33.4C125.398 35.71 123.656 37.5067 121.42 38.79C119.183 40.0367 116.561 40.66 113.555 40.66ZM113.555 34.335C115.608 34.335 117.203 33.5467 118.34 31.97C119.476 30.3567 120.045 28.12 120.045 25.26C120.045 22.4 119.476 20.1817 118.34 18.605C117.203 16.9917 115.608 16.185 113.555 16.185C111.501 16.185 109.906 16.9917 108.77 18.605C107.633 20.1817 107.065 22.4 107.065 25.26C107.065 28.12 107.633 30.3567 108.77 31.97C109.906 33.5467 111.501 34.335 113.555 34.335ZM18.625 112.88C15.0683 112.88 11.8967 112.073 9.11 110.46C6.36 108.847 4.19667 106.518 2.62 103.475C1.08 100.432 0.31 96.7833 0.31 92.53C0.31 88.3867 1.06167 84.7933 2.565 81.75C4.06833 78.67 6.21333 76.2867 9 74.6C11.7867 72.9133 15.05 72.07 18.79 72.07C23.8867 72.07 27.8467 73.335 30.67 75.865C33.53 78.3583 35.3633 81.9333 36.17 86.59L27.48 86.92C27.04 84.4633 26.0867 82.5567 24.62 81.2C23.1533 79.8067 21.21 79.11 18.79 79.11C16.7 79.11 14.9217 79.66 13.455 80.76C11.9883 81.86 10.87 83.4183 10.1 85.435C9.33 87.4517 8.945 89.8167 8.945 92.53C8.945 95.28 9.33 97.6633 10.1 99.68C10.9067 101.66 12.0433 103.182 13.51 104.245C14.9767 105.308 16.7183 105.84 18.735 105.84C21.375 105.84 23.41 105.107 24.84 103.64C26.3067 102.137 27.2233 100.065 27.59 97.425L36.335 97.755C35.8217 100.945 34.8133 103.658 33.31 105.895C31.8067 108.132 29.8267 109.855 27.37 111.065C24.95 112.275 22.035 112.88 18.625 112.88ZM49.0761 112C46.6561 112 44.7678 111.395 43.4111 110.185C42.0544 108.975 41.3761 107.013 41.3761 104.3V72.95H49.6261V103.42C49.6261 104.3 49.8278 104.923 50.2311 105.29C50.6344 105.657 51.2211 105.84 51.9911 105.84H53.9711V112H49.0761ZM58.1876 112V82.52H66.4376V112H58.1876ZM58.0226 78.89V72.29H66.5476V78.89H58.0226ZM74.0323 112V82.52H81.4573L81.7873 91.155L80.7423 90.88C81.0357 88.68 81.6223 86.92 82.5023 85.6C83.419 84.28 84.5557 83.3267 85.9123 82.74C87.269 82.1533 88.754 81.86 90.3673 81.86C92.494 81.86 94.2907 82.3183 95.7573 83.235C97.2607 84.1517 98.3973 85.4533 99.1673 87.14C99.974 88.79 100.377 90.7517 100.377 93.025V112H92.1273V95.775C92.1273 94.1983 91.999 92.86 91.7423 91.76C91.4857 90.66 91.0273 89.835 90.3673 89.285C89.7073 88.6983 88.7907 88.405 87.6173 88.405C85.894 88.405 84.574 89.0467 83.6573 90.33C82.7407 91.5767 82.2823 93.3917 82.2823 95.775V112H74.0323ZM107.172 112V82.52H115.422V112H107.172ZM107.007 78.89V72.29H115.532V78.89H107.007ZM135.469 112.66C132.462 112.66 129.84 112.037 127.604 110.79C125.367 109.507 123.625 107.71 122.379 105.4C121.132 103.09 120.509 100.377 120.509 97.26C120.509 94.1433 121.132 91.4483 122.379 89.175C123.625 86.865 125.367 85.0683 127.604 83.785C129.84 82.5017 132.462 81.86 135.469 81.86C138.072 81.86 140.4 82.3183 142.454 83.235C144.544 84.1517 146.23 85.4717 147.514 87.195C148.797 88.9183 149.585 90.99 149.879 93.41L141.354 93.795C141.097 91.9617 140.437 90.5867 139.374 89.67C138.347 88.7167 137.045 88.24 135.469 88.24C133.415 88.24 131.82 89.0283 130.684 90.605C129.547 92.1817 128.979 94.4 128.979 97.26C128.979 100.12 129.547 102.357 130.684 103.97C131.82 105.547 133.415 106.335 135.469 106.335C137.045 106.335 138.365 105.858 139.429 104.905C140.492 103.915 141.134 102.43 141.354 100.45L149.879 100.78C149.622 103.2 148.852 105.308 147.569 107.105C146.322 108.865 144.654 110.24 142.564 111.23C140.51 112.183 138.145 112.66 135.469 112.66ZM163.451 112.66C160.408 112.66 157.915 111.963 155.971 110.57C154.065 109.14 153.111 107.16 153.111 104.63C153.111 102.027 153.918 100.028 155.531 98.635C157.181 97.205 159.601 96.16 162.791 95.5L172.306 93.63C172.306 91.7233 171.866 90.2933 170.986 89.34C170.143 88.35 168.915 87.855 167.301 87.855C165.725 87.855 164.496 88.2217 163.616 88.955C162.736 89.6517 162.168 90.6967 161.911 92.09L153.606 91.705C154.156 88.4783 155.605 86.04 157.951 84.39C160.335 82.7033 163.451 81.86 167.301 81.86C171.701 81.86 175.001 82.905 177.201 84.995C179.438 87.085 180.556 90.1467 180.556 94.18V104.245C180.556 105.088 180.685 105.657 180.941 105.95C181.235 106.207 181.656 106.335 182.206 106.335H183.031V112C182.775 112.073 182.353 112.147 181.766 112.22C181.216 112.293 180.666 112.33 180.116 112.33C178.943 112.33 177.843 112.128 176.816 111.725C175.826 111.322 175.02 110.643 174.396 109.69C173.773 108.7 173.461 107.307 173.461 105.51L174.176 106.06C173.81 107.38 173.15 108.535 172.196 109.525C171.28 110.515 170.07 111.285 168.566 111.835C167.1 112.385 165.395 112.66 163.451 112.66ZM165.431 106.995C166.788 106.995 167.98 106.738 169.006 106.225C170.033 105.675 170.84 104.887 171.426 103.86C172.013 102.833 172.306 101.623 172.306 100.23V98.8L165.596 100.23C164.276 100.487 163.268 100.927 162.571 101.55C161.911 102.137 161.581 102.907 161.581 103.86C161.581 104.85 161.911 105.62 162.571 106.17C163.231 106.72 164.185 106.995 165.431 106.995Z" fill="#4844B6"/>
</svg>
